<mxfile host="app.diagrams.net" agent="Mozilla/5.0 (Windows NT 10.0; Win64; x64) AppleWebKit/537.36 (KHTML, like Gecko) Chrome/127.0.0.0 Safari/537.36" border="50" scale="3" compressed="false" locked="false" version="24.7.6">
  <diagram name="Blank" id="YmL12bMKpDGza6XwsDPr">
    <mxGraphModel dx="1195" dy="550" grid="0" gridSize="10" guides="1" tooltips="1" connect="1" arrows="1" fold="1" page="0" pageScale="1" pageWidth="827" pageHeight="1169" background="none" math="1" shadow="0">
      <root>
        <mxCell id="X5NqExCQtvZxIxQ7pmgY-0" />
        <mxCell id="1" parent="X5NqExCQtvZxIxQ7pmgY-0" />
        <mxCell id="Gr0Zq-AI6Quabplr0KPa-179" value="" style="swimlane;html=1;startSize=20;horizontal=1;containerType=tree;labelBackgroundColor=none;strokeColor=#D4E1F5;strokeWidth=1;fillColor=none;fontFamily=Comic Sans MS;fontSize=9;swimlaneLine=0;dashed=1;collapsible=0;" parent="1" vertex="1">
          <mxGeometry x="-55" y="55" width="659" height="441" as="geometry" />
        </mxCell>
        <mxCell id="Liw7ZN7XDZ7YaYjhqiWV-25" value="预算系统" style="rounded=0;whiteSpace=wrap;html=1;fillColor=#dae8fc;strokeColor=#6c8ebf;" vertex="1" parent="Gr0Zq-AI6Quabplr0KPa-179">
          <mxGeometry x="105" y="148" width="83" height="41" as="geometry" />
        </mxCell>
        <mxCell id="Liw7ZN7XDZ7YaYjhqiWV-26" value="" style="edgeStyle=entityRelationEdgeStyle;rounded=0;orthogonalLoop=1;jettySize=auto;html=1;curved=1;" edge="1" source="Liw7ZN7XDZ7YaYjhqiWV-25" target="Liw7ZN7XDZ7YaYjhqiWV-27" parent="Gr0Zq-AI6Quabplr0KPa-179">
          <mxGeometry relative="1" as="geometry" />
        </mxCell>
        <mxCell id="Liw7ZN7XDZ7YaYjhqiWV-27" value="预算编制" style="rounded=0;whiteSpace=wrap;html=1;fillColor=#dae8fc;strokeColor=#6c8ebf;" vertex="1" parent="Gr0Zq-AI6Quabplr0KPa-179">
          <mxGeometry x="275" y="46" width="83" height="41" as="geometry" />
        </mxCell>
        <mxCell id="Liw7ZN7XDZ7YaYjhqiWV-28" value="" style="edgeStyle=orthogonalEdgeStyle;rounded=0;orthogonalLoop=1;jettySize=auto;html=1;curved=1;" edge="1" source="Liw7ZN7XDZ7YaYjhqiWV-25" target="Liw7ZN7XDZ7YaYjhqiWV-29" parent="Gr0Zq-AI6Quabplr0KPa-179">
          <mxGeometry relative="1" as="geometry" />
        </mxCell>
        <mxCell id="Liw7ZN7XDZ7YaYjhqiWV-29" value="预算审批" style="rounded=0;whiteSpace=wrap;html=1;fillColor=#dae8fc;strokeColor=#6c8ebf;" vertex="1" parent="Gr0Zq-AI6Quabplr0KPa-179">
          <mxGeometry x="275" y="112.00000000000011" width="83" height="41" as="geometry" />
        </mxCell>
        <mxCell id="Liw7ZN7XDZ7YaYjhqiWV-30" value="" style="edgeStyle=orthogonalEdgeStyle;rounded=0;orthogonalLoop=1;jettySize=auto;html=1;curved=1;" edge="1" source="Liw7ZN7XDZ7YaYjhqiWV-25" target="Liw7ZN7XDZ7YaYjhqiWV-31" parent="Gr0Zq-AI6Quabplr0KPa-179">
          <mxGeometry relative="1" as="geometry" />
        </mxCell>
        <mxCell id="Liw7ZN7XDZ7YaYjhqiWV-31" value="预算确认" style="rounded=0;whiteSpace=wrap;html=1;fillColor=#dae8fc;strokeColor=#6c8ebf;" vertex="1" parent="Gr0Zq-AI6Quabplr0KPa-179">
          <mxGeometry x="275" y="173.0000000000001" width="83" height="41" as="geometry" />
        </mxCell>
        <mxCell id="Liw7ZN7XDZ7YaYjhqiWV-32" value="" style="edgeStyle=orthogonalEdgeStyle;rounded=0;orthogonalLoop=1;jettySize=auto;html=1;curved=1;entryX=0;entryY=0.5;entryDx=0;entryDy=0;" edge="1" source="Liw7ZN7XDZ7YaYjhqiWV-25" target="Liw7ZN7XDZ7YaYjhqiWV-33" parent="Gr0Zq-AI6Quabplr0KPa-179">
          <mxGeometry relative="1" as="geometry" />
        </mxCell>
        <mxCell id="Liw7ZN7XDZ7YaYjhqiWV-33" value="预算调整" style="rounded=0;whiteSpace=wrap;html=1;fillColor=#dae8fc;strokeColor=#6c8ebf;" vertex="1" parent="Gr0Zq-AI6Quabplr0KPa-179">
          <mxGeometry x="273" y="234" width="83" height="41" as="geometry" />
        </mxCell>
      </root>
    </mxGraphModel>
  </diagram>
</mxfile>
